# xmcd
#
# Track frame offsets: 
#        150
#        11635
#        27560
#        45824
#        60943
#        76266
#        94363
#        108327
#        121202
#        140892
#        160541
#
# Disc length: 2292 seconds
#
# Revision: 1
# Processed by: cddbd v1.5.2PL0 Copyright (c) Steve Scherf et al.
# Submitted via: ExactAudioCopyFreeDBPlugin 1.0
#
DISCID=8108f20b
DTITLE=古羽 - 焉知非福
DYEAR=2005
DGENRE=Soul
TTITLE0=Starlight (Mandarin)
TTITLE1=焉知非福
TTITLE2=Over the Rainbow
TTITLE3=情書
TTITLE4=Enchantez ·R¤W§A
TTITLE5=我的心裡只有你沒有他
TTITLE6=La vie en Rose
TTITLE7=夢
TTITLE8=Les Feuilles Mortes
TTITLE9=一起愛,一起老 (instrumental)
TTITLE10=Starlight (Cantonese)
EXTD=
EXTT0=
EXTT1=
EXTT2=
EXTT3=
EXTT4=
EXTT5=
EXTT6=
EXTT7=
EXTT8=
EXTT9=
EXTT10=
PLAYORDER=
